<?xml version="1.0" encoding="UTF-8" standalone="no"?>
<!-- Created with Inkscape (http://www.inkscape.org/) -->

<svg
   xmlns:dc="http://purl.org/dc/elements/1.1/"
   xmlns:cc="http://creativecommons.org/ns#"
   xmlns:rdf="http://www.w3.org/1999/02/22-rdf-syntax-ns#"
   xmlns:svg="http://www.w3.org/2000/svg"
   xmlns="http://www.w3.org/2000/svg"
   xmlns:sodipodi="http://sodipodi.sourceforge.net/DTD/sodipodi-0.dtd"
   xmlns:inkscape="http://www.inkscape.org/namespaces/inkscape"
   id="svg5999"
   sodipodi:docname="user.svg"
   viewBox="0 0 744.09 1052.4"
   version="1.1"
   inkscape:version="0.91 r13725">
  <defs
     id="defs6001">
    <filter
       id="filter6784"
       inkscape:collect="always">
      <feGaussianBlur
         id="feGaussianBlur6786"
         stdDeviation="2.2836291"
         inkscape:collect="always" />
    </filter>
  </defs>
  <sodipodi:namedview
     id="base"
     bordercolor="#666666"
     inkscape:pageshadow="2"
     inkscape:window-y="22"
     pagecolor="#ffffff"
     inkscape:window-height="852"
     inkscape:window-maximized="1"
     inkscape:zoom="0.83972969"
     inkscape:window-x="0"
     showgrid="false"
     borderopacity="1.0"
     inkscape:current-layer="layer1"
     inkscape:cx="210.05726"
     inkscape:cy="542.84137"
     inkscape:window-width="1440"
     inkscape:pageopacity="0.0"
     inkscape:document-units="px" />
  <g
     id="layer1"
     inkscape:label="Layer 1"
     inkscape:groupmode="layer">
    <g
       id="g6788">
      <path
         id="path6593"
         d="m6.2258 931.81c-10.175-0.007 3.5184-20.076 6.2258-29.884 3.0385-11.008 6.6767-21.891 11.206-32.374 7.8059-18.065 15.216-36.838 27.394-52.297 8.1909-10.398 18.981-18.643 29.884-26.148 6.5763-4.5268 13.843-8.0314 21.168-11.206 12.886-5.5854 26.402-9.632 39.845-13.697 17.249-5.2155 35.197-8.0108 52.297-13.697 13.604-4.5234 27.623-8.6941 39.845-16.187 7.0236-4.3061 13.713-9.6119 18.677-16.187 4.1396-5.4832 6.3798-12.216 8.7161-18.677 2.773-7.6686 3.9004-15.842 6.2258-23.658 2.7639-9.2896 1.237-22.03 9.1751-27.591 51.225-35.885 186.28-0.19975 187.56 5.1776 5.0473 21.164 4.7652 26.711 9.8303 39.19 4.5867 11.3 9.5782 23.18 18.35 31.653 10.101 9.7572 24.331 14.139 37.158 19.857 13.519 6.0266 27.647 10.631 41.746 15.139 14.771 4.7222 30.09 7.6213 44.826 12.452 12.233 4.0097 25.371 6.597 36.11 13.697 11.999 7.9329 21.302 19.586 29.884 31.129 11.088 14.915 20.393 31.345 27.394 48.561 5.4984 13.523 8.3015 28.03 11.206 42.335 1.7521 8.6285 12.536 26.407 3.7355 26.148-235.24-6.9194-412.14-3.5225-718.46-3.7355z"
         sodipodi:nodetypes="saaaaaaaaaaaasaaaaaaaaass"
         style="fill:#dce3ec"
         inkscape:connector-curvature="0" />
      <path
         id="path6026"
         style="fill:#dce3ec"
         d="m293.55 683.94c11.741 6.3069 24.42 10.814 37.437 13.674 14.364 3.1558 29.162 4.3147 43.845 3.49 13.814-0.77579 27.612-3.3304 40.412-8.5821 16.061-6.5898 30.144-17.238 43.044-28.855 8.6418-7.7821 16.877-16.089 23.763-25.46 7.1427-9.7213 12.752-20.475 17.965-31.353 5.354-11.172 10.323-22.528 14.895-34.042 5.0076 1.1153 10.318 0.83508 15.181-0.80101 4.7631-1.6027 9.0361-4.46 12.732-7.8658 3.6955-3.4058 6.8449-7.3585 9.8108-11.416 4.6116-6.3084 8.8188-12.912 12.587-19.758 6.0729-10.269 9.6013-22.031 10.184-33.947 0.42066-8.6004-0.68328-17.288-3.3947-25.46-2.1007-6.3317-5.2585-12.475-10.184-16.974-3.7845-3.4568-8.5427-5.8358-13.579-6.7894l-0.19066-28.054c-0.12134-17.854-0.59877-35.755-3.2041-53.419-2.2291-15.113-5.8653-30.089-11.882-44.131-5.8358-13.621-13.896-26.286-23.763-37.342-11.561-12.853-24.705-24.283-39.039-33.947-10.097-6.8075-20.825-12.761-32.25-16.974-11.48-4.233-23.545-6.6692-35.645-8.4868-9.8229-1.4756-19.735-2.5553-29.668-2.4183-10.032 0.13846-20.047 1.5243-29.74 4.1156l14.38-25.27-36.922 10.089c-14.522 4.4156-28.483 10.673-41.442 18.576-13.884 8.4661-26.606 18.812-37.857 30.552-8.398 8.7637-16.005 18.339-22.066 28.855-4.6805 8.1215-8.4119 16.752-11.882 25.46-5.8561 14.697-11.007 29.709-14.571 45.123-4.4198 19.117-6.3736 38.803-5.7978 58.416l1.6974 20.368 1.6974 8.4868c-2.7898-0.5753-5.697-0.5753-8.4868 0-3.6652 0.75582-7.101 2.4999-9.9868 4.8825-2.8859 2.3826-5.2291 5.3924-6.9868 8.6964-4.104 7.7147-4.945 16.723-5.0921 25.46-0.24368 14.472 1.2826 29.272 7.3044 42.434 3.521 7.6958 8.4817 14.628 13.35 21.551 4.2766 6.0816 8.7206 12.398 15.181 16.077 4.5357 2.5835 9.898 3.6885 15.086 3.1087 3.2857 11.761 7.8472 23.165 13.579 33.947 4.296 8.0817 9.2393 15.802 14.342 23.4 8.8682 13.207 18.325 26.18 30.076 36.904 7.5744 6.9119 16.046 12.827 25.079 17.679"
         sodipodi:nodetypes="azzzzzzczaczszcczzczzcaccczzzzaccczzzzzsczaaa"
         inkscape:connector-curvature="0"
         inkscape:path-effect="#path-effect6028"
         inkscape:original-d="m 293.54767,683.94008 c 11.77111,6.15989 25.72745,10.96247 37.43721,13.67421 11.70976,2.71174 28.91633,4.04502 43.84532,3.49004 14.92899,-0.55498 25.37672,-1.86293 40.41224,-8.58212 15.03552,-6.71919 32.67303,-19.60744 43.04432,-28.85509 10.37129,-9.24765 16.74148,-15.94311 23.76301,-25.46038 7.02153,-9.51727 7.47468,-13.73622 17.96526,-31.35346 10.49057,-17.61725 14.89492,-34.0425 14.89492,-34.0425 0,0 7.54354,2.0197 15.18088,-0.80101 7.63733,-2.82071 16.05802,-11.81649 22.54231,-19.2813 5.12097,-5.89533 12.58719,-19.75795 12.58719,-19.75795 0,0 9.37554,-23.79137 10.18415,-33.94716 0.80861,-10.15579 -0.56781,-17.37862 -3.39471,-25.46038 -2.17852,-6.22812 -5.90703,-13.01284 -10.18415,-16.97358 -4.27712,-3.96074 -13.57887,-6.78943 -13.57887,-6.78943 l -0.19066,-28.05409 c 0,0 -1.05544,-37.17378 -3.20406,-53.41912 -2.14862,-16.24534 -5.83794,-30.40915 -11.88151,-44.13131 -6.04357,-13.72216 -23.76301,-37.34189 -23.76301,-37.34189 0,0 -26.91069,-25.6476 -39.03924,-33.94716 -12.12855,-8.29956 -20.84603,-12.69275 -32.24981,-16.97359 -11.40378,-4.28084 -35.64453,-8.48679 -35.64453,-8.48679 0,0 -19.74948,-2.69694 -29.66754,-2.41826 -10.00386,0.28109 -29.74,4.11562 -29.74,4.11562 l 14.37988,-25.26972 -36.92219,10.08882 c 0,0 -29.34836,10.57835 -41.44228,18.57562 -12.09392,7.99727 -28.85568,20.54741 -37.85691,30.55245 -9.00123,10.00504 -16.50188,19.67222 -22.06566,28.85509 -5.56378,9.18287 -6.90554,13.34899 -11.88151,25.46037 -4.97597,12.11138 -11.34324,29.65028 -14.57054,45.123 -3.99543,19.15537 -5.79776,58.41586 -5.79776,58.41586 l 1.69736,20.3683 1.69736,8.4868 c 0,0 -3.73349,-1.66737 -8.4868,0 -4.75331,1.66737 -12.84031,6.78752 -16.97358,13.57886 -4.13327,6.79134 -4.19529,14.09028 -5.09207,25.46038 -0.89678,11.3701 2.45546,30.27265 7.30445,42.43396 4.84898,12.16131 8.52695,15.28053 13.34984,21.55063 4.82289,6.2701 8.74334,12.48778 15.18089,16.07725 4.48422,2.50033 15.08557,3.10872 15.08557,3.10872 0,0 6.96243,20.51622 13.57886,33.94716 6.61643,13.43094 9.04961,15.93768 14.34151,23.40029 9.17937,12.94468 18.47014,26.08074 30.0758,36.9036 7.48019,6.97565 16.01686,12.93696 25.07906,17.67926 z" />
      <path
         id="path6034"
         d="m276.99 441.34c-8.0614 0-14.595 7.9932-14.595 17.863 0 9.8702 6.5335 17.863 14.595 17.863 8.0614 0 14.595-7.9932 14.595-17.863 0-9.8702-6.5335-17.863-14.595-17.863z"
         style="opacity:0"
         inkscape:connector-curvature="0" />
      <path
         id="path6553"
         d="m354.47 430.03s-0.72617 0.0866-0.9375 0.34375c-0.60777 0.73946 1.6157 4.4989 3.1562 10.312 1.5341 5.7893 1.5531 12.82 1.8248 17.656 0.44467 7.9159-7.9011 26.628-10.11 29.95-2.4481 3.681-10.764 12.913-13.107 20.662-2.2831 7.5512-3.4763 18.009-0.60738 24.326 2.8442 6.2621 8.1898 10.67 16.5 12.75 2.1789 0.5454 5.2516 0.3985 8.6562-0.0625s7.1373-1.2561 10.625-2.125c6.9754-1.7378 13.147-2.1192 13.345-2.9348 0.25709-1.0601-0.30499-3.2423-1.3627-2.9754-0.82536 0.20827-5.3018 3.2149-12.232 4.9415-3.4653 0.86331-7.1836 1.6405-10.531 2.0938-3.3476 0.45329-6.3288 0.57464-8.25 0.0937-8.0899-2.025-10.676-4.3593-13.398-10.353-2.6979-5.9399-2.6601-13.856-0.38033-21.397 2.2198-7.3421 11.997-26.389 15.318-30.523 3.1439-3.9133 7.1711-14.293 7.5545-24.384 0.19301-5.0793-1.3435-12.145-2.9062-17.969-1.5628-5.8238-2.0162-10.327-3.1562-10.406-0.00002 0 0 0.00005 0 0.00005z"
         sodipodi:nodetypes="cssssssssssssscssssssc"
         style="stroke-linejoin:round;opacity:.52653;stroke-width:13.3;block-progression:tb;text-indent:0;color:#000000;stroke:#9cabbe;stroke-linecap:round;text-transform:none;fill:#9cabbe"
         inkscape:connector-curvature="0" />
      <path
         id="path6583"
         d="m309.86 587.28s16.551 16.977 28.076 20.423c11.524 3.4455 28.939 3.9554 40.292 1.2584 11.353-2.6971 27.543-12.035 32.464-16.727 4.9204-4.6916 2.4903-3.7355 2.4903-3.7355"
         sodipodi:nodetypes="czzzc"
         style="stroke-linejoin:round;opacity:.52;stroke:#9cabbe;stroke-linecap:round;stroke-width:14;fill:none"
         inkscape:connector-curvature="0" />
      <path
         id="path6632"
         d="m263.41 455.82c-0.35932 2.9425-0.13233 5.9866 0.55365 8.8734 0.49776 2.0947 1.2805 4.1922 2.5433 5.955 1.304 1.8204 2.9887 3.5123 5.0174 4.521 2.0721 1.0303 4.5328 1.5989 6.8427 1.3327 2.6241-0.30234 5.203-1.549 7.1974-3.239 1.8486-1.5664 3.1174-3.7872 3.9793-6.0225 1.1296-2.9291 1.5606-6.1608 1.4101-9.2867-0.12646-2.6259-0.82075-5.2624-1.9291-7.6588-0.87143-1.8841-2.0372-3.725-3.6246-5.0946-1.6692-1.4402-3.7452-2.5484-5.9171-3.0365-2.0607-0.46317-4.3418-0.47803-6.341 0.19399-2.0011 0.67264-3.6546 2.1726-5.1212 3.6607-1.1587 1.1757-2.0826 2.5856-2.8028 4.0572-0.88473 1.8076-1.5652 3.7553-1.808 5.7441z"
         sodipodi:nodetypes="aaaaaaaaaaaaaaa"
         style="opacity:.52;fill:#9cabbe"
         inkscape:connector-curvature="0" />
      <path
         id="path6632-6"
         d="m427.09 455.64c-0.35932 2.9425-0.13233 5.9866 0.55365 8.8734 0.49776 2.0947 1.2805 4.1922 2.5433 5.955 1.304 1.8204 2.9887 3.5123 5.0174 4.521 2.0721 1.0303 4.5328 1.5989 6.8427 1.3327 2.6241-0.30234 5.203-1.549 7.1974-3.239 1.8486-1.5664 3.1174-3.7872 3.9793-6.0225 1.1296-2.9291 1.5606-6.1608 1.4101-9.2867-0.12646-2.6259-0.82075-5.2624-1.9291-7.6588-0.87143-1.8841-2.0372-3.725-3.6246-5.0946-1.6692-1.4402-3.7452-2.5484-5.9171-3.0365-2.0607-0.46317-4.3418-0.47803-6.341 0.19399-2.0011 0.67264-3.6546 2.1726-5.1212 3.6607-1.1587 1.1757-2.0826 2.5856-2.8028 4.0572-0.88473 1.8076-1.5652 3.7553-1.808 5.7441z"
         sodipodi:nodetypes="aaaaaaaaaaaaaaa"
         style="opacity:.52;fill:#9cabbe"
         inkscape:connector-curvature="0" />
      <path
         id="path6026-3"
         style="filter:url(#filter6784);stroke:#9cabbe;stroke-width:1px;fill:none"
         d="m294.15 684.53c11.741 6.3069 24.42 10.814 37.437 13.674 14.364 3.1558 29.162 4.3147 43.845 3.49 13.814-0.77579 27.612-3.3304 40.412-8.5821 16.061-6.5898 30.144-17.238 43.044-28.855 8.6418-7.7821 16.877-16.089 23.763-25.46 7.1427-9.7213 12.752-20.475 17.965-31.353 5.354-11.172 10.323-22.528 14.895-34.042 5.0076 1.1153 10.318 0.83508 15.181-0.80101 4.7631-1.6027 9.0361-4.46 12.732-7.8658 3.6955-3.4058 6.8449-7.3585 9.8108-11.416 4.6116-6.3084 8.8188-12.912 12.587-19.758 6.0729-10.269 9.6013-22.031 10.184-33.947 0.42066-8.6004-0.68328-17.288-3.3947-25.46-2.1007-6.3317-5.2585-12.475-10.184-16.974-3.7845-3.4568-8.5427-5.8358-13.579-6.7894l-0.19066-28.054c-0.12134-17.854-0.59877-35.755-3.2041-53.419-2.2291-15.113-5.8653-30.089-11.882-44.131-5.8358-13.621-13.896-26.286-23.763-37.342-11.561-12.853-24.705-24.283-39.039-33.947-10.097-6.8075-20.825-12.761-32.25-16.974-11.48-4.233-23.545-6.6692-35.645-8.4868-9.8229-1.4756-19.735-2.5553-29.668-2.4183-10.032 0.13846-20.047 1.5243-29.74 4.1156l14.38-25.27-36.92 10.09c-14.522 4.4156-28.483 10.673-41.442 18.576-13.884 8.4661-26.606 18.812-37.857 30.552-8.398 8.7637-16.005 18.339-22.066 28.855-4.6805 8.1215-8.4119 16.752-11.882 25.46-5.8561 14.697-11.007 29.709-14.571 45.123-4.4198 19.117-6.3736 38.803-5.7978 58.416l1.6974 20.368 1.6974 8.4868c-2.7898-0.5753-5.697-0.5753-8.4868 0-3.6652 0.75582-7.101 2.4999-9.9868 4.8825-2.8859 2.3826-5.2291 5.3924-6.9868 8.6964-4.104 7.7147-4.945 16.723-5.0921 25.46-0.24368 14.472 1.2826 29.272 7.3044 42.434 3.521 7.6958 8.4817 14.628 13.35 21.551 4.2766 6.0816 8.7206 12.398 15.181 16.077 4.5357 2.5835 9.898 3.6885 15.086 3.1087 3.2857 11.761 7.8472 23.165 13.579 33.947 4.296 8.0817 9.2393 15.802 14.342 23.4 8.8682 13.207 18.325 26.18 30.076 36.904 7.5744 6.9119 16.046 12.827 25.079 17.679"
         sodipodi:nodetypes="azzzzzzczaczszcczzczzcaccczzzzaccczzzzzsczaaa"
         inkscape:connector-curvature="0"
         inkscape:path-effect="#path-effect6028-2"
         inkscape:original-d="m 294.15171,684.52642 c 11.77111,6.15989 25.72745,10.96247 37.43721,13.67421 11.70976,2.71174 28.91633,4.04502 43.84532,3.49004 14.92899,-0.55498 25.37672,-1.86293 40.41224,-8.58212 15.03552,-6.71919 32.67303,-19.60744 43.04432,-28.85509 10.37129,-9.24765 16.74148,-15.94311 23.76301,-25.46038 7.02153,-9.51727 7.47468,-13.73622 17.96526,-31.35346 10.49057,-17.61725 14.89492,-34.0425 14.89492,-34.0425 0,0 7.54354,2.0197 15.18088,-0.80101 7.63733,-2.82071 16.05802,-11.81649 22.54231,-19.2813 5.12097,-5.89533 12.58719,-19.75795 12.58719,-19.75795 0,0 9.37554,-23.79137 10.18415,-33.94716 0.80861,-10.15579 -0.56781,-17.37862 -3.39471,-25.46038 -2.17852,-6.22812 -5.90703,-13.01284 -10.18415,-16.97358 -4.27712,-3.96074 -13.57887,-6.78943 -13.57887,-6.78943 l -0.19066,-28.05409 c 0,0 -1.05544,-37.17378 -3.20406,-53.41912 -2.14862,-16.24534 -5.83794,-30.40915 -11.88151,-44.13131 -6.04357,-13.72216 -23.76301,-37.34189 -23.76301,-37.34189 0,0 -26.91069,-25.6476 -39.03924,-33.94716 -12.12855,-8.29956 -20.84603,-12.69275 -32.24981,-16.97359 -11.40378,-4.28084 -35.64453,-8.48679 -35.64453,-8.48679 0,0 -19.74948,-2.69694 -29.66754,-2.41826 -10.00386,0.28109 -29.74,4.11562 -29.74,4.11562 L 357.85031,204.46 320.92812,214.54882 c 0,0 -29.34836,10.57835 -41.44228,18.57562 -12.09392,7.99727 -28.85568,20.54741 -37.85691,30.55245 -9.00123,10.00504 -16.50188,19.67222 -22.06566,28.85509 -5.56378,9.18287 -6.90554,13.34899 -11.88151,25.46037 -4.97597,12.11138 -11.34324,29.65028 -14.57054,45.123 -3.99543,19.15537 -5.79776,58.41586 -5.79776,58.41586 l 1.69736,20.3683 1.69736,8.4868 c 0,0 -3.73349,-1.66737 -8.4868,0 -4.75331,1.66737 -12.84031,6.78752 -16.97358,13.57886 -4.13327,6.79134 -4.19529,14.09028 -5.09207,25.46038 -0.89678,11.3701 2.45546,30.27265 7.30445,42.43396 4.84898,12.16131 8.52695,15.28053 13.34984,21.55063 4.82289,6.2701 8.74334,12.48778 15.18089,16.07725 4.48422,2.50033 15.08557,3.10872 15.08557,3.10872 0,0 6.96243,20.51622 13.57886,33.94716 6.61643,13.43094 9.04961,15.93768 14.34151,23.40029 9.17937,12.94468 18.47014,26.08074 30.0758,36.9036 7.48019,6.97565 16.01686,12.93696 25.07906,17.67926 z" />
    </g>
    <path
       style="opacity:0.70999995;fill:#666666;fill-opacity:0.92307691;fill-rule:evenodd;stroke:#3e2c2e;stroke-width:1.80089724;stroke-linejoin:round;stroke-miterlimit:4;stroke-dasharray:none;stroke-opacity:1"
       d="m 662.29552,933.55349 c -22.8719,-0.79864 -179.99571,-1.62257 -349.164,-1.83096 -200.1934,-0.24663 -308.1489014,-0.96544 -309.2118994,-2.0589 -1.0493677,-1.07941 -0.7001532,-4.10704 0.9768871,-8.46941 1.435547,-3.73418 5.8710253,-15.95516 9.8566193,-27.15773 8.984942,-25.25455 20.942599,-52.32263 28.903445,-65.4276 19.640375,-32.33155 54.743453,-52.09646 120.570398,-67.88759 54.58084,-13.09332 80.65291,-26.00482 91.02214,-45.07632 5.23601,-9.63026 13.25927,-35.95304 13.25927,-43.50111 0,-3.84759 -2.3672,-7.65582 -9.64152,-15.51068 -17.99414,-19.43026 -40.41339,-56.59524 -46.46865,-77.03234 -1.75772,-5.93245 -2.87317,-7.21377 -6.2799,-7.21377 -8.0161,0 -16.04092,-5.54905 -24.37127,-16.85239 -10.34888,-14.04225 -17.47045,-27.53764 -19.94994,-37.80521 -2.8007,-11.59768 -2.21817,-42.97443 0.9446,-50.87898 2.98037,-7.44867 13.37558,-17.31798 16.8404,-15.9884 1.29854,0.49829 2.361,0.16617 2.361,-0.73808 0,-0.90425 1.35533,-1.6441 3.01183,-1.6441 2.79187,0 2.96355,-2.1046 2.35098,-28.82002 -0.36347,-15.851 -0.0699,-30.17247 0.65236,-31.82547 0.72226,-1.65299 1.14679,-3.71377 0.94339,-4.57951 -0.76486,-3.25548 3.83321,-24.73499 5.29496,-24.73499 0.83914,0 1.04216,-0.78237 0.45119,-1.7386 -1.96038,-3.17195 14.42042,-48.66714 18.46287,-51.27786 1.062,-0.68586 1.34252,-1.25872 0.6234,-1.27302 -1.98375,-0.0394 5.07378,-13.20175 13.21053,-24.63768 11.35415,-15.95791 41.01238,-43.26825 43.87707,-40.40356 0.59478,0.59478 1.08142,0.27815 1.08142,-0.70362 0,-2.12638 8.30897,-7.83332 11.40485,-7.83332 1.19571,0 2.17401,-0.68442 2.17401,-1.52092 0,-4.84955 61.23884,-25.08686 65.41808,-21.6184 1.36428,1.13225 2.55036,1.19538 3.1844,0.16948 0.55569,-0.89915 0.0509,-2.02165 -1.12191,-2.49446 -1.17275,-0.47281 -0.32053,-0.91995 1.89381,-0.99365 3.8617,-0.12853 3.91386,0.0219 1.27733,3.68505 -2.83812,3.94322 -9.54681,15.92473 -9.54681,17.05029 0,0.34996 11.26622,0.58773 25.03604,0.52838 55.2915,-0.2383 91.17547,14.65102 130.27225,54.05381 34.06156,34.32816 44.35159,64.19353 46.22866,134.17223 l 0.95611,35.64452 6.95764,3.39472 c 13.53937,6.60603 20.71144,24.43897 19.25001,47.86401 -1.02749,16.46938 -6.9777,30.60999 -21.46729,51.01677 -10.39827,14.64469 -19.15116,20.98629 -30.46658,22.07357 l -8.16178,0.78423 -9.80089,21.89558 c -10.94103,24.44266 -19.33029,38.38121 -31.79741,52.8306 l -8.41703,9.75533 2.8092,13.77313 c 5.69234,27.90894 18.29129,50.7474 33.17992,60.14617 16.29548,10.28689 50.92753,22.78809 112.47873,40.60167 14.78476,4.27888 29.97852,9.35982 33.76392,11.29099 18.99709,9.69159 47.04529,46.34304 60.52308,79.08734 2.77097,6.7321 6.6886,19.33498 8.70582,28.00641 2.01724,8.67143 5.52455,21.35309 7.79405,28.18145 2.26949,6.82837 3.68469,13.12981 3.14492,14.0032 -1.05851,1.71271 -2.85494,1.69948 -65.28071,-0.48028 z M 379.59658,615.62153 c 11.65242,-3.03508 31.32733,-12.98683 36.19264,-18.30659 5.00865,-5.47647 6.06518,-10.52273 2.87176,-13.71618 -3.95604,-3.95603 -6.77801,-3.38906 -12.89533,2.5908 -9.10132,8.89684 -25.8314,15.72718 -40.39186,16.4907 -19.39923,1.01724 -28.23378,-1.67205 -41.53501,-12.64352 -11.80631,-9.73839 -16.77922,-11.0441 -20.35253,-5.34381 -1.34052,2.13847 -1.3465,3.80229 -0.0212,5.94075 2.63612,4.25392 20.51107,18.44978 27.26975,21.65697 12.68183,6.01794 33.18065,7.41532 48.86189,3.33088 l -9e-5,0 z m -9.2467,-64.67453 c 16.51791,-3.17338 21.40081,-6.46486 19.6918,-13.27402 -1.61325,-6.42773 -4.77635,-6.91307 -18.51526,-2.84102 -15.1783,4.49866 -20.60771,4.54508 -24.93956,0.21324 -6.52773,-6.52774 -4.69148,-15.94685 7.97131,-40.8888 13.20292,-26.00591 14.61505,-33.84368 9.90887,-54.9971 -2.29243,-10.30403 -3.67305,-13.30493 -6.77049,-14.71621 -4.78097,-2.17836 -11.1186,0.6794 -11.09132,5.00126 0.0102,1.60087 1.15583,6.66017 2.54604,11.24288 1.39022,4.58272 2.52767,11.23741 2.52767,14.78822 0,9.023 -5.99174,24.05615 -14.59879,36.62804 -17.10408,24.98306 -14.28977,48.59685 6.96068,58.40457 8.34206,3.85011 8.53649,3.85335 26.30905,0.43894 z m -84.73736,-78.5735 c 4.06231,-4.06229 4.96152,-6.39315 4.96152,-12.86075 0,-6.4676 -0.89921,-8.79846 -4.96152,-12.86075 -6.50071,-6.50073 -12.18253,-6.41749 -17.80194,0.2608 -7.64319,9.0834 -5.07451,24.79527 4.69847,28.73915 5.96878,2.4087 7.89937,1.92567 13.10347,-3.27845 z m 161.1376,2.4056 c 3.33453,-1.72437 5.58848,-4.71165 6.92775,-9.18171 5.57494,-18.60748 -13.23843,-32.48425 -23.44193,-17.2908 -2.13027,3.17209 -3.87323,7.63952 -3.87323,9.92763 0,6.0743 4.70249,14.99251 9.00032,17.06899 5.05562,2.44258 5.70822,2.41254 11.38709,-0.52411 z M 350.21363,228.18358 c -1.22454,-0.40818 -3.03345,0.0649 -4.01979,1.05119 -1.25956,1.25956 -0.59686,1.48046 2.22644,0.74215 2.29517,-0.6002 3.06458,-1.3696 1.79335,-1.79334 z"
       id="path4145"
       inkscape:connector-curvature="0" />
    <path
       style="opacity:0.70999995;fill:#666666;fill-opacity:0.92307691;fill-rule:evenodd;stroke:#0f1b0c;stroke-width:1.80089724;stroke-linejoin:round;stroke-miterlimit:4;stroke-dasharray:none;stroke-opacity:1"
       d="m 692.3076,933.78914 c -0.60839,-0.6084 -155.06543,-1.66667 -343.23787,-2.35174 -188.17244,-0.68505 -342.6532213,-1.76709 -343.2906413,-2.4045 -2.18851,-2.18852 18.5779103,-57.24368 32.1547603,-85.24748 14.15012,-29.18626 35.1856,-48.20323 69.177071,-62.53901 13.97911,-5.89566 31.89169,-11.4109 70.714,-21.7727 40.12932,-10.71065 64.01402,-22.2258 74.43231,-35.88489 7.74015,-10.14786 19.16219,-45.01993 17.24624,-52.65366 -0.51419,-2.04878 -6.41932,-10.52033 -13.12246,-18.82566 -19.04457,-23.59657 -32.37925,-46.24409 -43.64805,-74.13143 -1.95832,-4.84635 -2.58056,-5.24143 -11.27023,-7.15566 -10.97012,-2.41659 -31.37037,-30.13873 -37.37279,-50.78632 -2.25959,-7.77273 -2.75444,-14.50384 -2.20311,-29.96727 0.65447,-18.35633 1.0795,-20.47462 5.34257,-26.62622 4.43169,-6.39493 6.60386,-7.95586 16.64077,-11.95802 l 4.47308,-1.78362 0.83759,-35.34527 c 0.7243,-30.56402 1.42417,-37.65024 5.17376,-52.38478 5.04195,-19.81299 13.18925,-42.84349 18.102,-51.16996 1.88851,-3.20081 3.43367,-6.82371 3.43367,-8.05089 0,-8.98035 38.07326,-52.91528 51.29083,-59.18742 3.1624,-1.50066 7.16458,-4.29175 8.8937,-6.20241 1.72913,-1.91067 4.05434,-3.47394 5.16713,-3.47394 1.11279,0 3.73902,-1.48809 5.83609,-3.30686 6.97452,-6.04896 49.79225,-20.45617 60.79507,-20.45617 l 5.78008,0 -3.77535,6.10865 c -2.07644,3.35975 -4.03335,8.32453 -4.34868,11.03283 -0.47092,4.0445 0.0596,4.92419 2.96983,4.92419 2.41517,0 3.23926,-0.79196 2.58856,-2.48765 -0.8204,-2.13796 2.43489,-2.36489 23.15708,-1.61434 59.81346,2.16641 90.24133,15.72095 130.3992,58.08822 30.89842,32.59839 39.53242,59.65643 41.70594,130.70199 l 1.05462,34.47199 6.10048,3.12905 c 12.7023,6.51521 18.59535,17.23153 20.0441,36.44948 1.62444,21.54854 -8.04692,46.28525 -26.21726,67.05669 -8.72425,9.97313 -14.82682,13.58325 -25.57099,15.12711 l -7.62163,1.09517 -9.66486,21.21698 c -11.72556,25.74075 -17.8831,36.11154 -31.00887,52.22639 l -10.04984,12.33847 3.56009,15.46229 c 1.95805,8.50426 6.50546,21.66532 10.10536,29.24681 15.23627,32.08805 22.93844,36.04594 143.8493,73.91959 22.2375,6.96558 28.82373,9.77378 35.07932,14.95691 16.9634,14.05522 40.29721,46.88882 49.60982,69.80726 2.21759,5.45753 7.54053,22.82604 11.82872,38.59667 4.2882,15.77064 8.12158,29.62865 8.51861,30.79558 0.54511,1.60216 -3.35218,2.1217 -15.91555,2.1217 -9.15058,0 -17.13519,-0.49777 -17.74357,-1.10615 z M 390.33341,614.01127 c 22.74177,-9.03773 32.71213,-18.07423 30.34559,-27.50326 -1.93981,-7.72879 -6.86245,-7.42467 -18.23837,1.12677 -12.2887,9.23759 -28.07417,14.57827 -43.08897,14.57827 -13.2756,0 -22.82385,-3.29937 -33.87061,-11.70393 -12.19593,-9.27884 -15.60621,-10.81826 -19.43109,-8.77123 -4.24134,2.26988 -5.67169,6.40958 -3.57094,10.33489 2.06589,3.86013 18.86811,17.74877 26.14078,21.60781 16.06463,8.52427 40.76294,8.65662 61.71361,0.33068 z m -22.79612,-60.06871 c 20.42958,-3.90883 26.50291,-8.34023 23.22966,-16.94952 -2.0938,-5.50711 -5.56988,-5.92683 -19.56839,-2.3628 -15.31425,3.899 -20.0008,3.84567 -23.72539,-0.26994 -4.73885,-5.23638 -2.57779,-15.44512 8.10756,-38.29978 12.51019,-26.75781 14.07812,-33.34444 11.56299,-48.57419 -1.08288,-6.55708 -3.05695,-14.52611 -4.38682,-17.70895 -2.08452,-4.98897 -3.22041,-5.78695 -8.23748,-5.78695 -9.26349,0 -10.43278,2.91453 -7.00413,17.45811 4.51814,19.16494 2.77852,25.77909 -15.16585,57.6613 -13.47185,23.93577 -9.20746,43.32281 11.83945,53.82522 8.09024,4.03703 7.62039,4.01676 23.3484,1.0075 z m -84.12065,-76.58838 c 12.07317,-8.45639 11.1862,-27.37207 -1.5934,-33.98065 -6.66641,-3.44734 -11.89672,-1.42279 -16.70713,6.467 -4.30556,7.06174 -4.30063,14.23252 0.0153,21.31025 5.04594,8.27617 11.97202,10.6258 18.2859,6.2034 l -6.4e-4,0 z m 161.4153,0.76769 c 13.90825,-4.84844 14.51355,-30.34181 0.84382,-35.53904 -8.64033,-3.28505 -17.38246,2.82826 -20.22175,14.14093 -1.44097,5.74132 4.56067,18.66862 9.85281,21.22258 2.08233,1.00494 3.86305,1.87886 3.95713,1.94203 0.094,0.0632 2.59968,-0.73174 5.56799,-1.7665 z"
       id="path4147"
       inkscape:connector-curvature="0" />
    <path
       style="opacity:0.70999995;fill:#be8847;fill-opacity:0.71978021;fill-rule:evenodd;stroke:#e13636;stroke-width:1.80089724;stroke-linejoin:round;stroke-miterlimit:4;stroke-dasharray:none;stroke-opacity:1"
       d="m 684.21974,932.5069 c -0.38899,-0.38005 -152.6549,-1.53863 -338.36868,-2.5746 -185.7138,-1.03598 -337.9493281,-2.17148 -338.3011881,-2.52333 -1.85144,-1.85144 20.5838001,-60.13671 31.5170201,-81.87912 13.94501,-27.73185 30.88653,-44.47081 58.85697,-58.15328 15.137098,-7.40469 31.616588,-12.93012 75.879268,-25.4416 46.78455,-13.22434 70.70267,-24.75392 80.12869,-38.62558 8.84226,-13.01253 19.08306,-46.74057 16.33623,-53.80324 -0.77909,-2.00319 -7.23993,-11.20338 -14.35745,-20.44485 -15.54624,-20.18548 -28.17572,-40.74568 -36.47989,-59.38752 -8.02274,-18.01004 -7.7351,-17.64067 -15.33075,-19.68597 -9.43882,-2.54163 -23.61784,-18.51835 -32.6916,-36.83647 l -7.28752,-14.71205 0,-24.01946 c 0,-23.77557 0.049,-24.08363 4.82287,-30.34099 2.65258,-3.47684 8.38117,-8.00904 12.73019,-10.07153 l 7.90732,-3.75001 1.04316,-33.92607 c 0.57374,-18.65935 1.95848,-38.50895 3.07721,-44.11023 5.90786,-29.57973 22.21579,-70.85306 34.53905,-87.41396 18.38159,-24.70255 44.58181,-46.65386 69.12283,-57.9131 16.83532,-7.72393 52.61811,-17.73158 52.61811,-14.71612 0,0.45024 -1.12886,3.08148 -2.50859,5.84721 -3.73945,7.49591 -3.86373,12.56248 -0.36237,14.77241 2.47468,1.56192 3.52551,1.32421 5.42055,-1.22617 2.16182,-2.9094 4.02978,-3.0668 23.23928,-1.95812 55.92605,3.22776 85.48329,15.54032 120.27332,50.10182 25.44041,25.2733 36.95403,45.29016 42.95778,74.68376 3.15406,15.44192 6.15993,53.66521 6.16933,78.45067 l 0.007,18.19444 9.10136,5.82208 c 13.34193,8.53472 17.239,17.2856 17.10684,38.41356 -0.0828,13.23053 -0.90082,18.16513 -4.55749,27.49126 -9.26491,23.62959 -25.87901,43.79044 -38.88757,47.18921 -4.05616,1.05975 -9.16765,2.4488 -11.35887,3.08677 -3.07018,0.89386 -6.1431,5.83207 -13.39647,21.52822 -11.41365,24.69887 -19.03725,37.47143 -31.77738,53.23965 l -9.67615,11.97597 3.55352,14.06955 c 7.85251,31.09051 18.59168,50.44646 33.90696,61.11276 11.88617,8.27812 41.98395,19.92794 93.62762,36.24006 22.80792,7.20408 45.42411,14.83337 50.25819,16.95398 10.73118,4.70756 21.22229,14.16656 33.50256,30.20665 21.39666,27.9476 27.83474,42.25714 42.30622,94.03173 l 5.81174,20.79264 -19.88595,0 c -10.93728,0 -20.20422,-0.31095 -20.59318,-0.69103 l 1.2e-4,0 z M 389.05688,616.09765 c 24.12026,-9.40408 36.344,-21.19968 32.41794,-31.28252 -2.45818,-6.31305 -8.49575,-6.13296 -18.19866,0.54283 -13.16305,9.05641 -25.24831,13.65617 -38.4596,14.63806 -15.90749,1.18227 -23.37731,-0.97953 -39.29907,-11.37338 -16.97656,-11.0824 -24.7593,-11.03415 -24.7593,0.15351 0,7.19052 19.71553,23.79016 34.51145,29.05715 12.27509,4.36965 40.46073,3.46012 53.78724,-1.73565 z m -14.48674,-62.44456 c 13.09181,-3.21609 17.8454,-6.37183 17.8454,-11.84697 0,-11.05491 -4.60458,-12.72319 -22.91434,-8.30213 -13.21838,3.19171 -16.96209,3.12977 -20.42978,-0.33791 -4.28316,-4.28315 -2.47164,-12.40226 8.41944,-37.7355 11.1612,-25.96154 13.14362,-34.55449 11.01754,-47.75628 -3.50752,-21.77969 -9.12848,-28.66156 -19.53666,-23.91928 -4.45182,2.02838 -4.51481,2.27697 -3.19446,12.60945 3.16752,24.78795 2.65375,27.57907 -9.63857,52.36166 -12.93272,26.07373 -15.11316,35.302 -10.92951,46.25673 3.20076,8.38107 7.19975,12.5511 17.98295,18.75213 8.317,4.7828 11.61006,4.77421 31.37799,-0.0818 l 0,-9e-5 z m -87.86441,-77.48925 c 12.63128,-11.55716 5.48655,-35.19983 -10.63726,-35.19983 -10.34467,0 -18.29573,14.35193 -14.43383,26.05359 4.4261,13.41123 15.85343,17.58008 25.07109,9.14624 z m 161.22149,1.74243 c 4.61811,-2.20791 8.98794,-11.0506 8.98794,-18.18779 0,-19.11813 -21.48136,-26.16807 -29.93332,-9.82379 -3.70598,7.16659 -3.36351,13.35589 1.18704,21.45249 5.4601,9.71494 10.00308,11.22306 19.75834,6.55909 z"
       id="path4149"
       inkscape:connector-curvature="0" />
  </g>
  <metadata
     id="metadata17">
    <rdf:RDF>
      <cc:Work>
        <dc:format>image/svg+xml</dc:format>
        <dc:type
           rdf:resource="http://purl.org/dc/dcmitype/StillImage" />
        <cc:license
           rdf:resource="http://creativecommons.org/licenses/publicdomain/" />
        <dc:publisher>
          <cc:Agent
             rdf:about="http://openclipart.org/">
            <dc:title>Openclipart</dc:title>
          </cc:Agent>
        </dc:publisher>
      </cc:Work>
      <cc:License
         rdf:about="http://creativecommons.org/licenses/publicdomain/">
        <cc:permits
           rdf:resource="http://creativecommons.org/ns#Reproduction" />
        <cc:permits
           rdf:resource="http://creativecommons.org/ns#Distribution" />
        <cc:permits
           rdf:resource="http://creativecommons.org/ns#DerivativeWorks" />
      </cc:License>
    </rdf:RDF>
  </metadata>
</svg>
